<svg viewBox="0 0 96 96" xmlns="http://www.w3.org/2000/svg" xmlns:xlink="http://www.w3.org/1999/xlink" id="Icons_Blind" overflow="hidden"><path d="M50.54 37.91C46.0782 36.4685 41.2926 38.917 39.8511 43.3789 39.5776 44.2256 39.4388 45.1101 39.44 46 39.4372 46.883 39.5756 47.7607 39.85 48.6Z"/><path d="M26.73 61.72 31.12 57.33C26.126 54.5118 21.5319 51.0376 17.46 47 19.6428 44.5896 21.9812 42.3248 24.46 40.22 27.4808 37.6279 30.7812 35.3807 34.3 33.52 28.6182 39.7069 27.8447 48.9553 32.42 56L35.1 53.32C31.0581 46.2218 33.5357 37.191 40.6338 33.1491 45.1777 30.5617 50.75 30.5658 55.29 33.16L61.57 26.88C57.2916 24.9114 52.649 23.8589 47.94 23.79 31.39 23.79 17.28 38.17 11.94 44.44 10.568 46.06 10.6282 48.4511 12.08 50 16.4359 54.5238 21.3603 58.4634 26.73 61.72Z"/><path d="M69.71 31.47 85.06 16.12 80.82 11.88 12.82 79.88 17.06 84.12 35.33 65.85C39.3633 67.3655 43.6315 68.1609 47.94 68.2 64.33 68.2 78.32 55.67 83.8 50 85.265 48.4647 85.351 46.0766 84 44.44 79.8064 39.5278 75.0044 35.1694 69.71 31.47ZM47.94 60.8C45.801 60.8042 43.6874 60.3364 41.75 59.43L46.75 54.43C47.1376 54.4856 47.5285 54.5157 47.92 54.52 52.6121 54.5145 56.4145 50.7121 56.42 46.02 56.4153 45.6285 56.3852 45.2377 56.33 44.85L61.33 39.85C64.7652 47.2547 61.5473 56.0422 54.1426 59.4775 52.1867 60.3848 50.0561 60.8533 47.9 60.85ZM60.78 59.3C66.8082 53.5087 68.1721 44.3804 64.1 37.08L65.4 35.78C70.1935 38.9704 74.5619 42.7575 78.4 47.05 74.71 50.63 68.39 56 60.78 59.3Z"/></svg>